<svg xmlns="http://www.w3.org/2000/svg" width="512" height="512" viewBox="0 0 108 108"><rect x="10" y="10" width="88" height="88" rx="18" fill="#1565C0"/><rect x="18" y="70" width="12" height="20" fill="#fff"/><rect x="38" y="54" width="12" height="36" fill="#fff"/><rect x="58" y="38" width="12" height="52" fill="#fff"/><circle cx="78" cy="32" r="14" fill="#38BDF8"/><path d="M73 27h10c1.2 0 2 0.8 2 2s-.8 2-2 2H73c-1.2 0-2-.8-2-2s.8-2 2-2zm0 8h10c1.2 0 2 .8 2 2s-.8 2-2 2H73c-1.2 0-2-.8-2-2s.8-2 2-2z" fill="#fff"/></svg>